<mxfile host="app.diagrams.net" agent="Mozilla/5.0 (Macintosh; Intel Mac OS X 10_15_7) AppleWebKit/605.1.15 (KHTML, like Gecko) Version/17.5 Safari/605.1.15" version="24.7.10">
  <diagram name="Page-1" id="NVIDplfwPpL645zohMpe">
    <mxGraphModel dx="795" dy="539" grid="1" gridSize="10" guides="1" tooltips="1" connect="1" arrows="1" fold="1" page="1" pageScale="1" pageWidth="827" pageHeight="1169" math="0" shadow="0">
      <root>
        <mxCell id="0" />
        <mxCell id="1" parent="0" />
        <mxCell id="J_tO9Nc0sdhzEk3S7hDS-2" value="Продажі і&amp;nbsp;&lt;div&gt;маркетинг&lt;/div&gt;" style="whiteSpace=wrap;html=1;align=center;labelBackgroundColor=none;" vertex="1" parent="1">
          <mxGeometry x="90" y="230" width="120" height="70" as="geometry" />
        </mxCell>
        <mxCell id="J_tO9Nc0sdhzEk3S7hDS-14" value="Складання і тестування&lt;div&gt;комп&#39;ютерів&lt;/div&gt;" style="whiteSpace=wrap;html=1;align=center;labelBackgroundColor=none;" vertex="1" parent="1">
          <mxGeometry x="270" y="350" width="120" height="70" as="geometry" />
        </mxCell>
        <mxCell id="J_tO9Nc0sdhzEk3S7hDS-15" value="Відвантаження і отримання" style="whiteSpace=wrap;html=1;align=center;labelBackgroundColor=none;" vertex="1" parent="1">
          <mxGeometry x="590" y="410" width="120" height="70" as="geometry" />
        </mxCell>
        <mxCell id="J_tO9Nc0sdhzEk3S7hDS-16" value="" style="endArrow=classic;html=1;rounded=1;" edge="1" parent="1">
          <mxGeometry width="50" height="50" relative="1" as="geometry">
            <mxPoint x="10" y="260" as="sourcePoint" />
            <mxPoint x="90" y="260" as="targetPoint" />
          </mxGeometry>
        </mxCell>
        <mxCell id="J_tO9Nc0sdhzEk3S7hDS-17" value="" style="endArrow=classic;html=1;rounded=1;entryX=0.5;entryY=1;entryDx=0;entryDy=0;" edge="1" parent="1" target="J_tO9Nc0sdhzEk3S7hDS-2">
          <mxGeometry width="50" height="50" relative="1" as="geometry">
            <mxPoint x="150" y="570" as="sourcePoint" />
            <mxPoint x="150" y="340" as="targetPoint" />
          </mxGeometry>
        </mxCell>
        <mxCell id="J_tO9Nc0sdhzEk3S7hDS-19" value="" style="endArrow=classic;html=1;rounded=1;" edge="1" parent="1">
          <mxGeometry width="50" height="50" relative="1" as="geometry">
            <mxPoint x="150" y="530" as="sourcePoint" />
            <mxPoint x="640" y="480" as="targetPoint" />
            <Array as="points">
              <mxPoint x="190" y="530" />
              <mxPoint x="270" y="530" />
              <mxPoint x="640" y="530" />
            </Array>
          </mxGeometry>
        </mxCell>
        <mxCell id="J_tO9Nc0sdhzEk3S7hDS-21" value="" style="endArrow=classic;html=1;rounded=1;exitX=1;exitY=0.5;exitDx=0;exitDy=0;" edge="1" parent="1" source="J_tO9Nc0sdhzEk3S7hDS-15">
          <mxGeometry width="50" height="50" relative="1" as="geometry">
            <mxPoint x="740" y="460" as="sourcePoint" />
            <mxPoint x="800" y="445" as="targetPoint" />
          </mxGeometry>
        </mxCell>
        <mxCell id="J_tO9Nc0sdhzEk3S7hDS-22" value="" style="endArrow=classic;html=1;rounded=1;exitX=1;exitY=0.75;exitDx=0;exitDy=0;" edge="1" parent="1" source="J_tO9Nc0sdhzEk3S7hDS-2">
          <mxGeometry width="50" height="50" relative="1" as="geometry">
            <mxPoint x="370" y="440" as="sourcePoint" />
            <mxPoint x="330" y="340" as="targetPoint" />
            <Array as="points">
              <mxPoint x="330" y="283" />
            </Array>
          </mxGeometry>
        </mxCell>
        <mxCell id="J_tO9Nc0sdhzEk3S7hDS-24" value="" style="endArrow=classic;html=1;rounded=1;exitX=1;exitY=0.25;exitDx=0;exitDy=0;" edge="1" parent="1" source="J_tO9Nc0sdhzEk3S7hDS-2">
          <mxGeometry width="50" height="50" relative="1" as="geometry">
            <mxPoint x="370" y="440" as="sourcePoint" />
            <mxPoint x="810" y="248" as="targetPoint" />
          </mxGeometry>
        </mxCell>
        <mxCell id="J_tO9Nc0sdhzEk3S7hDS-25" value="" style="endArrow=classic;html=1;rounded=1;" edge="1" parent="1">
          <mxGeometry width="50" height="50" relative="1" as="geometry">
            <mxPoint x="360" y="170" as="sourcePoint" />
            <mxPoint x="360" y="340" as="targetPoint" />
          </mxGeometry>
        </mxCell>
        <mxCell id="J_tO9Nc0sdhzEk3S7hDS-26" value="" style="endArrow=classic;html=1;rounded=1;exitX=1.025;exitY=0.857;exitDx=0;exitDy=0;exitPerimeter=0;" edge="1" parent="1" source="J_tO9Nc0sdhzEk3S7hDS-14">
          <mxGeometry width="50" height="50" relative="1" as="geometry">
            <mxPoint x="420" y="410" as="sourcePoint" />
            <mxPoint x="580" y="460" as="targetPoint" />
            <Array as="points">
              <mxPoint x="490" y="410" />
              <mxPoint x="490" y="460" />
            </Array>
          </mxGeometry>
        </mxCell>
        <mxCell id="J_tO9Nc0sdhzEk3S7hDS-27" value="" style="endArrow=classic;html=1;rounded=1;exitX=1.025;exitY=0.857;exitDx=0;exitDy=0;exitPerimeter=0;" edge="1" parent="1">
          <mxGeometry width="50" height="50" relative="1" as="geometry">
            <mxPoint x="390" y="380" as="sourcePoint" />
            <mxPoint x="580" y="430" as="targetPoint" />
            <Array as="points">
              <mxPoint x="510" y="380" />
              <mxPoint x="510" y="430" />
            </Array>
          </mxGeometry>
        </mxCell>
        <mxCell id="J_tO9Nc0sdhzEk3S7hDS-28" value="" style="endArrow=classic;html=1;rounded=1;exitX=0.103;exitY=1.1;exitDx=0;exitDy=0;exitPerimeter=0;" edge="1" parent="1" source="J_tO9Nc0sdhzEk3S7hDS-44">
          <mxGeometry width="50" height="50" relative="1" as="geometry">
            <mxPoint x="360" y="240" as="sourcePoint" />
            <mxPoint x="640" y="400" as="targetPoint" />
            <Array as="points">
              <mxPoint x="640" y="233" />
              <mxPoint x="640" y="370" />
            </Array>
          </mxGeometry>
        </mxCell>
        <mxCell id="J_tO9Nc0sdhzEk3S7hDS-29" value="" style="endArrow=classic;html=1;rounded=1;exitX=1;exitY=0.25;exitDx=0;exitDy=0;" edge="1" parent="1" source="J_tO9Nc0sdhzEk3S7hDS-14">
          <mxGeometry width="50" height="50" relative="1" as="geometry">
            <mxPoint x="420" y="410" as="sourcePoint" />
            <mxPoint x="410" y="200" as="targetPoint" />
            <Array as="points">
              <mxPoint x="630" y="368" />
              <mxPoint x="630" y="200" />
            </Array>
          </mxGeometry>
        </mxCell>
        <mxCell id="J_tO9Nc0sdhzEk3S7hDS-30" value="" style="endArrow=classic;html=1;rounded=1;entryX=0.75;entryY=0;entryDx=0;entryDy=0;" edge="1" parent="1" target="J_tO9Nc0sdhzEk3S7hDS-2">
          <mxGeometry width="50" height="50" relative="1" as="geometry">
            <mxPoint x="410" y="200" as="sourcePoint" />
            <mxPoint x="470" y="360" as="targetPoint" />
            <Array as="points">
              <mxPoint x="300" y="200" />
              <mxPoint x="210" y="200" />
              <mxPoint x="180" y="200" />
            </Array>
          </mxGeometry>
        </mxCell>
        <mxCell id="J_tO9Nc0sdhzEk3S7hDS-31" value="" style="endArrow=classic;html=1;rounded=1;entryX=0.175;entryY=-0.014;entryDx=0;entryDy=0;entryPerimeter=0;" edge="1" parent="1" target="J_tO9Nc0sdhzEk3S7hDS-2">
          <mxGeometry width="50" height="50" relative="1" as="geometry">
            <mxPoint x="360" y="180" as="sourcePoint" />
            <mxPoint x="470" y="360" as="targetPoint" />
            <Array as="points">
              <mxPoint x="110" y="180" />
              <mxPoint x="110" y="210" />
            </Array>
          </mxGeometry>
        </mxCell>
        <mxCell id="J_tO9Nc0sdhzEk3S7hDS-32" value="" style="endArrow=classic;html=1;rounded=1;" edge="1" parent="1">
          <mxGeometry width="50" height="50" relative="1" as="geometry">
            <mxPoint x="360" y="180" as="sourcePoint" />
            <mxPoint x="700" y="400" as="targetPoint" />
            <Array as="points">
              <mxPoint x="700" y="180" />
              <mxPoint x="700" y="340" />
            </Array>
          </mxGeometry>
        </mxCell>
        <mxCell id="J_tO9Nc0sdhzEk3S7hDS-33" value="Система оформлень замовлень" style="text;html=1;align=center;verticalAlign=middle;whiteSpace=wrap;rounded=0;" vertex="1" parent="1">
          <mxGeometry x="150" y="540" width="130" height="50" as="geometry" />
        </mxCell>
        <mxCell id="J_tO9Nc0sdhzEk3S7hDS-34" value="Продані продукти" style="text;html=1;align=center;verticalAlign=middle;whiteSpace=wrap;rounded=0;" vertex="1" parent="1">
          <mxGeometry x="750" y="410" width="60" height="30" as="geometry" />
        </mxCell>
        <mxCell id="J_tO9Nc0sdhzEk3S7hDS-35" value="Дзвінки клієнтів" style="text;html=1;align=center;verticalAlign=middle;whiteSpace=wrap;rounded=0;" vertex="1" parent="1">
          <mxGeometry y="220" width="80" height="30" as="geometry" />
        </mxCell>
        <mxCell id="J_tO9Nc0sdhzEk3S7hDS-36" value="Правила процедури стандарти" style="text;html=1;align=center;verticalAlign=middle;whiteSpace=wrap;rounded=0;" vertex="1" parent="1">
          <mxGeometry x="360" y="150" width="210" height="30" as="geometry" />
        </mxCell>
        <mxCell id="J_tO9Nc0sdhzEk3S7hDS-37" value="Маркетингові&lt;div&gt;матеріали&lt;/div&gt;" style="text;html=1;align=center;verticalAlign=middle;whiteSpace=wrap;rounded=0;" vertex="1" parent="1">
          <mxGeometry x="730" y="210" width="60" height="30" as="geometry" />
        </mxCell>
        <mxCell id="J_tO9Nc0sdhzEk3S7hDS-39" value="готові комп&#39;ютери" style="text;html=1;align=center;verticalAlign=middle;whiteSpace=wrap;rounded=0;" vertex="1" parent="1">
          <mxGeometry x="520" y="390" width="60" height="30" as="geometry" />
        </mxCell>
        <mxCell id="J_tO9Nc0sdhzEk3S7hDS-40" value="несправні компоненти" style="text;html=1;align=center;verticalAlign=middle;whiteSpace=wrap;rounded=0;" vertex="1" parent="1">
          <mxGeometry x="420" y="430" width="60" height="30" as="geometry" />
        </mxCell>
        <mxCell id="J_tO9Nc0sdhzEk3S7hDS-41" value="Замовлення клієнтів" style="text;html=1;align=center;verticalAlign=middle;whiteSpace=wrap;rounded=0;" vertex="1" parent="1">
          <mxGeometry x="240" y="290" width="60" height="30" as="geometry" />
        </mxCell>
        <mxCell id="J_tO9Nc0sdhzEk3S7hDS-42" value="Правила складання і тестування" style="text;html=1;align=center;verticalAlign=middle;whiteSpace=wrap;rounded=0;" vertex="1" parent="1">
          <mxGeometry x="360" y="290" width="140" height="30" as="geometry" />
        </mxCell>
        <mxCell id="J_tO9Nc0sdhzEk3S7hDS-43" value="Складання і" style="text;html=1;align=center;verticalAlign=middle;whiteSpace=wrap;rounded=0;" vertex="1" parent="1">
          <mxGeometry x="510" y="190" width="100" height="30" as="geometry" />
        </mxCell>
        <mxCell id="J_tO9Nc0sdhzEk3S7hDS-44" value="результати тестування" style="text;html=1;align=center;verticalAlign=middle;whiteSpace=wrap;rounded=0;" vertex="1" parent="1">
          <mxGeometry x="350" y="200" width="100" height="30" as="geometry" />
        </mxCell>
      </root>
    </mxGraphModel>
  </diagram>
</mxfile>
